<mxfile host="app.diagrams.net" agent="Mozilla/5.0 (Windows NT 10.0; Win64; x64) AppleWebKit/537.36 (KHTML, like Gecko) Chrome/127.0.0.0 Safari/537.36" version="24.7.6">
  <diagram name="Page-1" id="Page-1">
    <mxGraphModel dx="1430" dy="869" grid="1" gridSize="10" guides="1" tooltips="1" connect="1" arrows="1" fold="1" page="1" pageScale="1" pageWidth="850" pageHeight="1100" math="0" shadow="0">
      <root>
        <mxCell id="0" />
        <mxCell id="1" parent="0" />
        <UserObject label="" tags="Background" id="2">
          <mxCell style="vsdxID=110000;fillColor=none;gradientColor=none;strokeColor=none;spacingTop=-3;spacingBottom=-3;spacingLeft=-3;spacingRight=-3;points=[];labelBackgroundColor=none;rounded=0;html=1;whiteSpace=wrap;" parent="1" vertex="1">
            <mxGeometry x="20" y="200" width="1250" height="210" as="geometry" />
          </mxCell>
        </UserObject>
        <mxCell id="3" style="vsdxID=1;fillColor=#ffffff;gradientColor=none;shape=stencil(UzV2Ls5ILEhVNTIoLinKz04tz0wpyVA1dlE1MsrMy0gtyiwBslSNXVWNndPyi1LTi/JL81Ig/IJEkEoQKze/DGRCBUSfoZ6FCUiTkUElRMAAzHODqM3JzENSa0CeQkMDPEox7EdTDWQgnJ6WmZMD8Tlcnhr+gllJhlKK/EaBi0kJNbQQAzLQEwdQCJKwjF0B);strokeColor=#000000;spacingTop=-3;spacingBottom=-3;spacingLeft=-3;spacingRight=-3;points=[];labelBackgroundColor=none;rounded=0;html=1;whiteSpace=wrap;" parent="2" vertex="1">
          <mxGeometry width="1250" height="210" as="geometry" />
        </mxCell>
        <mxCell id="4" value="&lt;div style=&quot;font-size: 1px&quot;&gt;&lt;font style=&quot;font-size:11.64px;font-family:Helvetica;color:#000000;direction:ltr;letter-spacing:0px;line-height:120%;opacity:1&quot;&gt;&lt;b&gt;Fileproxy&lt;/b&gt;&lt;/font&gt;&lt;/div&gt;" style="text;vsdxID=1;fillColor=none;gradientColor=none;strokeColor=none;spacingTop=-3;spacingBottom=-3;spacingLeft=-3;spacingRight=-3;points=[];labelBackgroundColor=none;rounded=0;html=1;whiteSpace=wrap;verticalAlign=middle;align=center;overflow=width;rotation=-89.77;;html=1;" parent="3" vertex="1">
          <mxGeometry x="-91.5" y="95.5" width="206" height="19" as="geometry" />
        </mxCell>
        <mxCell id="5" value="&lt;div style=&quot;font-size: 1px&quot;&gt;&lt;font style=&quot;font-size:11.64px;font-family:Helvetica;color:#000000;direction:ltr;letter-spacing:0px;line-height:120%;opacity:1&quot;&gt;Synchronize cache metadata in database&lt;/font&gt;&lt;/div&gt;" style="verticalAlign=middle;align=center;overflow=width;vsdxID=2;fillColor=#ffffff;gradientColor=none;shape=stencil(nZBdDsIgEIRPs+8UEi9Q6wU8AZFVNiI0FH9PL+3EBI1PfduZ+SabDJl+8nZk0moqOZ35Lq54MlvSWqLnLKVeZAYy/TFlPuV0jQ56tJXUanHYodPNtFY2H/byYngbeChd0m1+9kCkED1btQMYJDZgp1ajH/0XXo1+gfVYxsBMEgK2bPPf8aqF4c3wBg==);strokeColor=#000000;strokeWidth=2;spacingTop=-3;spacingBottom=-3;spacingLeft=-3;spacingRight=-3;points=[];labelBackgroundColor=none;rounded=1;html=1;whiteSpace=wrap;" parent="2" vertex="1">
          <mxGeometry x="1060" y="45" width="120" height="40" as="geometry" />
        </mxCell>
        <mxCell id="6" style="vsdxID=310000;fillColor=none;gradientColor=none;strokeColor=none;spacingTop=-3;spacingBottom=-3;spacingLeft=-3;spacingRight=-3;points=[];labelBackgroundColor=none;rounded=0;html=1;whiteSpace=wrap;" parent="2" vertex="1">
          <mxGeometry as="geometry" />
        </mxCell>
        <mxCell id="7" value="&lt;div style=&quot;font-size: 1px&quot;&gt;&lt;font style=&quot;font-size:10.67px;font-family:Helvetica;color:#000000;direction:ltr;letter-spacing:0px;line-height:120%;opacity:1&quot;&gt;Yes&lt;/font&gt;&lt;/div&gt;" style="verticalAlign=middle;align=center;overflow=width;vsdxID=6;fillColor=none;gradientColor=none;strokeColor=none;spacingTop=-3;spacingBottom=-3;spacingLeft=-3;spacingRight=-3;points=[];labelBackgroundColor=#ffffff;rounded=0;html=1;whiteSpace=wrap;" parent="6" vertex="1">
          <mxGeometry as="geometry" />
        </mxCell>
        <UserObject label="" tags="Background" id="58">
          <mxCell style="vsdxID=3;edgeStyle=none;startArrow=none;endArrow=classic;startSize=5;endSize=5;strokeColor=#000000;spacingTop=0;spacingBottom=0;spacingLeft=0;spacingRight=0;verticalAlign=middle;html=1;labelBackgroundColor=#ffffff;rounded=0;exitX=0.5;exitY=0;exitDx=0;exitDy=0;exitPerimeter=0;entryX=0;entryY=0.5;entryDx=0;entryDy=0;entryPerimeter=0;" parent="6" source="10" target="12" edge="1">
            <mxGeometry relative="1" as="geometry">
              <mxPoint x="-43" y="126" as="offset" />
              <Array as="points">
                <mxPoint x="400" y="65" />
              </Array>
            </mxGeometry>
          </mxCell>
        </UserObject>
        <mxCell id="8" style="vsdxID=710000;fillColor=none;gradientColor=none;strokeColor=none;spacingTop=-3;spacingBottom=-3;spacingLeft=-3;spacingRight=-3;points=[];labelBackgroundColor=none;rounded=0;html=1;whiteSpace=wrap;" parent="2" vertex="1">
          <mxGeometry as="geometry" />
        </mxCell>
        <mxCell id="9" value="&lt;div style=&quot;font-size: 1px&quot;&gt;&lt;font style=&quot;font-size:10.67px;font-family:Helvetica;color:#000000;direction:ltr;letter-spacing:0px;line-height:120%;opacity:1&quot;&gt;no&lt;/font&gt;&lt;/div&gt;" style="verticalAlign=middle;align=center;overflow=width;vsdxID=9;fillColor=none;gradientColor=none;strokeColor=none;spacingTop=-3;spacingBottom=-3;spacingLeft=-3;spacingRight=-3;points=[];labelBackgroundColor=#ffffff;rounded=0;html=1;whiteSpace=wrap;" parent="8" vertex="1">
          <mxGeometry as="geometry" />
        </mxCell>
        <UserObject label="" tags="Background" id="59">
          <mxCell style="vsdxID=7;edgeStyle=none;startArrow=none;endArrow=classic;startSize=5;endSize=5;strokeColor=#000000;spacingTop=0;spacingBottom=0;spacingLeft=0;spacingRight=0;verticalAlign=middle;html=1;labelBackgroundColor=#ffffff;rounded=0;exitX=1;exitY=0.5;exitDx=0;exitDy=0;exitPerimeter=0;entryX=0;entryY=0.5;entryDx=0;entryDy=0;entryPerimeter=0;" parent="8" source="10" target="22" edge="1">
            <mxGeometry relative="1" as="geometry">
              <mxPoint x="-100" y="102" as="offset" />
              <Array as="points" />
            </mxGeometry>
          </mxCell>
        </UserObject>
        <mxCell id="10" value="&lt;div style=&quot;font-size: 1px&quot;&gt;&lt;font style=&quot;font-size:11.64px;font-family:Helvetica;color:#000000;direction:ltr;letter-spacing:0px;line-height:120%;opacity:1&quot;&gt;Does file exist in cache&lt;/font&gt;&lt;/div&gt;" style="verticalAlign=middle;align=center;overflow=width;vsdxID=4;fillColor=#ffffff;gradientColor=none;shape=stencil(nZBLDoQgEERP03uk4wnUuYeJKB0RDDKj3l5Ix/iJcTG7KnhVSRdgMel6VCDFFLzr1UxN0IAlSElWK08hKsAKsGidV513X9uwH+tEJjW4X2pYOJeLFJFiZcvuw6QheyIzcUXzF/bWukcf2b9bL2QUx4ktGcMLnf/vk8QnnhOrDQ==);strokeColor=#000000;spacingTop=-3;spacingBottom=-3;spacingLeft=-3;spacingRight=-3;points=[];labelBackgroundColor=none;rounded=0;html=1;whiteSpace=wrap;" parent="2" vertex="1">
          <mxGeometry x="360" y="90" width="80" height="80" as="geometry" />
        </mxCell>
        <mxCell id="11" value="&lt;div style=&quot;font-size: 1px&quot;&gt;&lt;font style=&quot;font-size:11.64px;font-family:Helvetica;color:#000000;direction:ltr;letter-spacing:0px;line-height:120%;opacity:1&quot;&gt;Get file&lt;/font&gt;&lt;/div&gt;" style="verticalAlign=middle;align=center;overflow=width;vsdxID=10;fillColor=#ffffff;gradientColor=none;shape=stencil(nZBdDsIgEIRPs+8UEi9Q6wU8AZFVNiI0FH9PL+3EBI1PfduZ+SabDJl+8nZk0moqOZ35Lq54MlvSWqLnLKVeZAYy/TFlPuV0jQ56tJXUanHYodPNtFY2H/byYngbeChd0m1+9kCkED1btQMYJDZgp1ajH/0XXo1+gfVYxsBMEgK2bPPf8aqF4c3wBg==);strokeColor=#000000;strokeWidth=2;spacingTop=-3;spacingBottom=-3;spacingLeft=-3;spacingRight=-3;points=[];labelBackgroundColor=none;rounded=1;html=1;whiteSpace=wrap;" parent="2" vertex="1">
          <mxGeometry x="40" y="85" width="120" height="40" as="geometry" />
        </mxCell>
        <mxCell id="12" value="&lt;div style=&quot;font-size: 1px&quot;&gt;&lt;font style=&quot;font-size:11.64px;font-family:Helvetica;color:#000000;direction:ltr;letter-spacing:0px;line-height:120%;opacity:1&quot;&gt;Mark cache eviction timer for reset.&lt;/font&gt;&lt;/div&gt;" style="verticalAlign=middle;align=center;overflow=width;vsdxID=5;fillColor=#ffffff;gradientColor=none;shape=stencil(nZBdDsIgEIRPs+8UEi9Q6wU8AZFVNiI0FH9PL+3EBI1PfduZ+SabDJl+8nZk0moqOZ35Lq54MlvSWqLnLKVeZAYy/TFlPuV0jQ56tJXUanHYodPNtFY2H/byYngbeChd0m1+9kCkED1btQMYJDZgp1ajH/0XXo1+gfVYxsBMEgK2bPPf8aqF4c3wBg==);strokeColor=#000000;strokeWidth=2;spacingTop=-3;spacingBottom=-3;spacingLeft=-3;spacingRight=-3;points=[];labelBackgroundColor=none;rounded=1;html=1;whiteSpace=wrap;" parent="2" vertex="1">
          <mxGeometry x="510" y="45" width="120" height="40" as="geometry" />
        </mxCell>
        <mxCell id="13" style="vsdxID=11;fillColor=#ffffff;gradientColor=none;image;aspect=fixed;image=data:image/png,iVBORw0KGgoAAAANSUhEUgAAADIAAAAyCAYAAAAeP4ixAAAAAXNSR0IArs4c6QAADOtJREFUaEOtWgtYFNcVPrOzu+wCC4ssihBEUFBUlGCighIlJNHEmObZhjRWwU8X10drUh+0fglJjV++NF9rkurXGptoa2wjyirYRq1FXmFBUV4KrCIPeayyvNmFhZ2daWd2Z3Z2mH3FXD9w995zzz3/Oefec+65IMDXEAAgqF+8w8469+UWvWFBRGvGBeiTJoHPzFHUR2ZBUBAQOIgIzCIE3CzELQYxbu4SEeYmEWEu+vj11D97tYgTYlLaR2q7z5Z9OYz6vm5ApXIcEXjNS2qZMAdhw99JTKadH72d1k7qzqpCbxSJAPlvsuK5fZzv+09fijKi/sf6RYGrJgQiF9KTFvVcV4qJoSY/MO76+NXUi95qxPNV/s85R31VPoBLvusVy5dZte9eUHcUtPOyBZEO9Vy4MwS/LFOltFCA3BrHag/XdDYm2WdL9uhE8oPjAh+UrS1aUPJ/mcVkCkHNXdN8RWORcl9ChKKYEBUETGAY/sBgQgfHMJHeTPgNYgK/EYHEh0/rpKs1PhgR2QBs0mxJ/sr5PrbL7mARZ8B35WmuPBBPSeNjKMEnLHOkWOv6J2YFhcllwRSNOzMAgGHcPHS6qvnB9f6JiCGB1Jfm7Teiv3N7WBDLiEjAIU1W8i7XrmaziDOinNPlU3rE4tsDQlko1wpiwkIslWHdqpXx4a4W6evrA3+ZDHzEYl4yEnNVm67/ZP0D6QgIxU06A9kl5BBfwccFr1XuTBp23NB21TvdIwfyy8PbwVdrEEj9aKYEdZYgEAkj3e+ujJui8PeV8IOwmuTkyZPQ2NgICIJAeno6zJ8/n4ec5EpSI1B1v69vz5XmUROGRzgQWgk0GmVyMt3Pdx45zCEJ3r96VaIbDnw4jPoFsAdRwInXwoVNLyfMjnNlBXLd4aEh+OSTTxiyuXPnwvr165nvlGxOXPCDwubSS836FO4aBCBfVyiTMvnW5rXIDnXl7V6RfB57gg8+YXknMVQXH654zKW/2oTr6uqCI0eOMKTh4eGgUqlcuzprtKx9oHbv5aZoggCZo1sj71Qok/7IjdmTgOzJLcnukE47yAVxYMWM2vCggERPJeEDslWl8iKqANzWG5q2qOsfIwD8Oa72vCYr2SHWOAA5UFAefhcPuD+BsoMcARkzfWqenT8zgbvhuVpgewq/RbZaD3sPTjWapqStv2bfZa3D2gDQqVEuj6AY2TaLgyzb1ZV3+0Ty2WyBF4pG7+57LiGG7jtx4gSsWrUKIiMjXRqnq7sLjhz23rVqamqgta0VXnn5FSt/AmDfFW1RSWv/KmsHncAQH5Qrl+ewNz/1ee8/C3/S7h9+jo1sisUw+KeXEuVsDTY0NEBubi5kZGTAjBkzbHzo88yObbJFwkC1dZuTCGadV1dXB3l5eZCZmcnibR1L/apSO47hc1jaGxMCNqtU+ZSOhkeNbc+r1PaJ5bE0IZmxfrgktDl6qqOFyPFbt25Bfn4+7N69G0QiaxDmNhoIfUxaN7vNtXjoBwcH4fPPP4cNGzZwrG31wxrdcKOqoCGOHUcQII6VK1dsplNM2P/N5ZjWgIg7uEDA0M1CRlp/98LiKGf+YzKZQCKROHV3z08t+4aheTpb863cmvK2gTEmlgABFhS3hJSpnhqgPGnXme8vPZAonrMzIODg0tA7MxWBsfZlPNmhrlzLu+OXD0zb4FjbW6drZnLGsjTK5L8gpNk25tdh4wIxkwyG4Mb+z9Y9PsWZZvj7HYF2d3XB4UeII87WfvHvVTf7x7BE666knOpqhTLpaSQ7tyijTTrdIcN8NRTRvr44hr2xXMrOZyvPXcs7dR2/2Vl6tKrDMeobwRf5dV7Z8S5xyAb2Jj/+QiwuFJAbxkmbJPlkKB4Bceet3HECYMSMDa0+fj2QLRlOCJ5Ddqorq/UiORNwgnDj8OF1jzvkWJPhOJGA1e0MiLey86mSPortdyFkP6I8X90/jPoG0RNiUENLzurEaIQOKO5WdmI0jyzCM5d3OU5nhrquVKs3ptjDOnIGebugAbcgKHN3Tw00N25eMd9ldutJjkEDMRgMVKyJjo4ClWqbi+zEc40d0rQVf1uvW8kK3o1I+gUtyYFp6RHCW+sWRi/wbgtOpi4qKoJdu3ZBf38/NZiYuBjU6rxHZUvNP12vKzmkaXuKxewh8vOCRoJdxtkyW3p91ZyIJ0kijUYDo6OjFL1CoYBFixZRnz3R3Zo1a6hLFbuRUTs7OxukUqlDP61JbhJaXFwMGIZRtGFh4RAXN5f6fPGO/uqHRc2pLCZGZH1BA46RrmVrm6Ik19PmzXAJxJ1adTodLFu2bBJZWFgYpKWlQXR0NMTHx8OCBQsmgWKrqbi4BDDMTG2FsOlhEBdn9fh8bU/px8X3bEcwFU1GkQ3nb1nYafsroYL6NxbPjncnrKNZ7NdVcp7ROArz5k3eZiSA5OTlTCGNPOFnz46B+PgF1DXYx8dWWHFj8m/ruys/07QvdXCtzPN142OoD1MZSAkw39maMp9JHl25krP1yP6DH30ER48eta+FAKxZvYZyUb5GgoqJiYGEhATKWuQ935G//dunZW1leQ26FSw+WmSruqpnUCQLoTujEWPXgRced1kZYRgQ1hIx45ccZKdOnQLSz2Uyf4iPX0jtt87OThfGtiYdsbGx1P3eWUzOVNeXNukNlGtRSyLIv5FfqSuuPxQFPWGVgYAgYsx4+MUEpnLi1sXcEHCtRqbrtbW1UF9fD+Rectbee+89u6txiNK+vqYdM1vYKdQh5Ndnyr7okoRsp2kRgoC/rp5lkoiEk0o9npxWznFNnk3WvMjLFPnTo9cDENbzKzg4mDq6SfeiGmvqmNmCp319jey1plDUbZdYj/zmzJWFrZKIWrYAPw1HtS8nzHKfNPJK7Q4uAQSBAJM52Hj06vVw4+ZNGBgYgGeeeQaCFQrGZdkcT9Z01R25dn8hGx+GiaZTkDfl15pGWbXY6fhI76frFis8qXAzi7iT/1F91Db/+b9VNQ6ZzOwjsVmjTI6hZH03r/xCtzh4Lb0Wec39NOWxgdBAfyYH41j4RxLLOza3ewz3N5+rpwsFtNt9qMla/j4FJOdcyTytcNptmi2p3FjU0PHBmkTH0iVr3ZaWFiqwed7cm6y9vR0iZ0Q6LUFuUtdda9Abl5Br0skharHMIp8fbN6DwPa8a/f6xAGMZALCAgeWhj2cGRI4jStCZWUlXLp4EbZt305tTJfNQ9/r6OiAY8eOwZtvvslEcDbfG91D93dcaCAVa6+0EnBak5X8MxoWtamyz5asbfWZdsE+mYBgi3Hoi5cSHS4x1dXVoFarYePGjbwWca93tt0dd2FzczNV+E5/Kx3mxNrPGhOGw+oT1x6YLYTDq4DAgs/9XrVCa7UQ66GHWxIiR9OCsLubkuYxBbrCwkIICQmhoi+7sQE4i8ieuGFTUxMVCMmgSLedFxrKqrqH2JGcPPm+rMhK2mKl4byP/Pab/0Z2yqa1sN8FyQr83gRF54JwhdP94lZAGzJPLk1cXurGh0W/L20hU3YmbgAC40IRFlGauZIMPjYonJl7cktzOqRT32d3k486qvny9iVR02d66PLMdLKQh6IorF3LHIpucNvhXm7uLcwpvPs0dwIByOYKZdIx9pshb6jYmVdZoxfLrZcPW0MJC5E1J7BteUyY06IdRcpBmp9/HlBU6DWQ49WdtUevd9hkcHjW+UqjTN7EBec05m09d0M/KPS3papW6YQEDqkK4m7Gsjhmz7hzK28tYsYJ2FHQcK3u4TB1zHLaZYlufO3VnFTrbYtpLt4Q3z11VTHiJ28ZQX1tDy12k0/Fjf17U2aLpstlDo8wfKC0Wi2VM7E3rzPwpW397fuv3EHMODGD5xpa7iMeTyvKSDXxzXeZheTkXZqqE4Roh4W+cr6H/wgYNaiWRflHBjuc0O6MxBknoKl3tDr7chPy0DDBfQehXbXcBxtfXbQt1eAMBC8QB48kK/Xnqtr7hDLH1IA8RggcBvSDDVEKGbFxcUTwE2EBDue8q9u9YcIyVNDUU3+8ulM8Mo7xuREdGAqMUr/0ul8sMrrSEAcIBwLr6+4zJUd0PoosqnRka0HjA+3VvTjz4oMKkI45Cr8bC6b5o7OCfMFXJPQTChCZAEGoG6h+dGLsP/d6TdpeQ6hpAp9rTYGtxydfIwDZW6FMsr+oukDiSYLLTM/+R+HSYYnsdL8ogLLOQI++a8gs4LlNThbQacTnGyCgEEGILeXK5fc89VOvgNBM950pzjTgoswbA0BWEn6kRoH/FyIg/lC+eXkh60Dy6K+tfhAQepFlX2riBLhlBwGC1wBg6g9EVAwA5zBMePb6tiUd3vB4xKouz1IIwNKjFYsFOP4sAkQSAQiZiLEDpx4AGgEBHHAgP3cDQD2KW/LKVCkD3gjvSGt34f8Bh1dFXh12EoYAAAAASUVORK5CYII=;strokeColor=#000000;spacingTop=-3;spacingBottom=-3;spacingLeft=-3;spacingRight=-3;points=[];labelBackgroundColor=#ffffff;rounded=0;html=1;whiteSpace=wrap;" parent="2" vertex="1">
          <mxGeometry x="1041" y="20" width="40" height="40" as="geometry" />
        </mxCell>
        <mxCell id="14" value="&lt;div style=&quot;font-size: 1px&quot;&gt;&lt;font style=&quot;font-size:11.64px;font-family:Helvetica;color:#000000;direction:ltr;letter-spacing:0px;line-height:120%;opacity:1&quot;&gt;Evict cache entries&lt;/font&gt;&lt;/div&gt;" style="verticalAlign=middle;align=center;overflow=width;vsdxID=12;fillColor=#ffffff;gradientColor=none;shape=stencil(nZBdDsIgEIRPs+8UEi9Q6wU8AZFVNiI0FH9PL+3EBI1PfduZ+SabDJl+8nZk0moqOZ35Lq54MlvSWqLnLKVeZAYy/TFlPuV0jQ56tJXUanHYodPNtFY2H/byYngbeChd0m1+9kCkED1btQMYJDZgp1ajH/0XXo1+gfVYxsBMEgK2bPPf8aqF4c3wBg==);strokeColor=#000000;strokeWidth=2;spacingTop=-3;spacingBottom=-3;spacingLeft=-3;spacingRight=-3;points=[];labelBackgroundColor=none;rounded=1;html=1;whiteSpace=wrap;" parent="2" vertex="1">
          <mxGeometry x="1060" y="150" width="120" height="40" as="geometry" />
        </mxCell>
        <mxCell id="15" style="vsdxID=13;fillColor=#ffffff;gradientColor=none;image;aspect=fixed;image=data:image/png,iVBORw0KGgoAAAANSUhEUgAAADIAAAAyCAYAAAAeP4ixAAAAAXNSR0IArs4c6QAADOtJREFUaEOtWgtYFNcVPrOzu+wCC4ssihBEUFBUlGCighIlJNHEmObZhjRWwU8X10drUh+0fglJjV++NF9rkurXGptoa2wjyirYRq1FXmFBUV4KrCIPeayyvNmFhZ2daWd2Z3Z2mH3FXD9w995zzz3/Oefec+65IMDXEAAgqF+8w8469+UWvWFBRGvGBeiTJoHPzFHUR2ZBUBAQOIgIzCIE3CzELQYxbu4SEeYmEWEu+vj11D97tYgTYlLaR2q7z5Z9OYz6vm5ApXIcEXjNS2qZMAdhw99JTKadH72d1k7qzqpCbxSJAPlvsuK5fZzv+09fijKi/sf6RYGrJgQiF9KTFvVcV4qJoSY/MO76+NXUi95qxPNV/s85R31VPoBLvusVy5dZte9eUHcUtPOyBZEO9Vy4MwS/LFOltFCA3BrHag/XdDYm2WdL9uhE8oPjAh+UrS1aUPJ/mcVkCkHNXdN8RWORcl9ChKKYEBUETGAY/sBgQgfHMJHeTPgNYgK/EYHEh0/rpKs1PhgR2QBs0mxJ/sr5PrbL7mARZ8B35WmuPBBPSeNjKMEnLHOkWOv6J2YFhcllwRSNOzMAgGHcPHS6qvnB9f6JiCGB1Jfm7Teiv3N7WBDLiEjAIU1W8i7XrmaziDOinNPlU3rE4tsDQlko1wpiwkIslWHdqpXx4a4W6evrA3+ZDHzEYl4yEnNVm67/ZP0D6QgIxU06A9kl5BBfwccFr1XuTBp23NB21TvdIwfyy8PbwVdrEEj9aKYEdZYgEAkj3e+ujJui8PeV8IOwmuTkyZPQ2NgICIJAeno6zJ8/n4ec5EpSI1B1v69vz5XmUROGRzgQWgk0GmVyMt3Pdx45zCEJ3r96VaIbDnw4jPoFsAdRwInXwoVNLyfMjnNlBXLd4aEh+OSTTxiyuXPnwvr165nvlGxOXPCDwubSS836FO4aBCBfVyiTMvnW5rXIDnXl7V6RfB57gg8+YXknMVQXH654zKW/2oTr6uqCI0eOMKTh4eGgUqlcuzprtKx9oHbv5aZoggCZo1sj71Qok/7IjdmTgOzJLcnukE47yAVxYMWM2vCggERPJeEDslWl8iKqANzWG5q2qOsfIwD8Oa72vCYr2SHWOAA5UFAefhcPuD+BsoMcARkzfWqenT8zgbvhuVpgewq/RbZaD3sPTjWapqStv2bfZa3D2gDQqVEuj6AY2TaLgyzb1ZV3+0Ty2WyBF4pG7+57LiGG7jtx4gSsWrUKIiMjXRqnq7sLjhz23rVqamqgta0VXnn5FSt/AmDfFW1RSWv/KmsHncAQH5Qrl+ewNz/1ee8/C3/S7h9+jo1sisUw+KeXEuVsDTY0NEBubi5kZGTAjBkzbHzo88yObbJFwkC1dZuTCGadV1dXB3l5eZCZmcnibR1L/apSO47hc1jaGxMCNqtU+ZSOhkeNbc+r1PaJ5bE0IZmxfrgktDl6qqOFyPFbt25Bfn4+7N69G0QiaxDmNhoIfUxaN7vNtXjoBwcH4fPPP4cNGzZwrG31wxrdcKOqoCGOHUcQII6VK1dsplNM2P/N5ZjWgIg7uEDA0M1CRlp/98LiKGf+YzKZQCKROHV3z08t+4aheTpb863cmvK2gTEmlgABFhS3hJSpnhqgPGnXme8vPZAonrMzIODg0tA7MxWBsfZlPNmhrlzLu+OXD0zb4FjbW6drZnLGsjTK5L8gpNk25tdh4wIxkwyG4Mb+z9Y9PsWZZvj7HYF2d3XB4UeII87WfvHvVTf7x7BE666knOpqhTLpaSQ7tyijTTrdIcN8NRTRvr44hr2xXMrOZyvPXcs7dR2/2Vl6tKrDMeobwRf5dV7Z8S5xyAb2Jj/+QiwuFJAbxkmbJPlkKB4Bceet3HECYMSMDa0+fj2QLRlOCJ5Ddqorq/UiORNwgnDj8OF1jzvkWJPhOJGA1e0MiLey86mSPortdyFkP6I8X90/jPoG0RNiUENLzurEaIQOKO5WdmI0jyzCM5d3OU5nhrquVKs3ptjDOnIGebugAbcgKHN3Tw00N25eMd9ldutJjkEDMRgMVKyJjo4ClWqbi+zEc40d0rQVf1uvW8kK3o1I+gUtyYFp6RHCW+sWRi/wbgtOpi4qKoJdu3ZBf38/NZiYuBjU6rxHZUvNP12vKzmkaXuKxewh8vOCRoJdxtkyW3p91ZyIJ0kijUYDo6OjFL1CoYBFixZRnz3R3Zo1a6hLFbuRUTs7OxukUqlDP61JbhJaXFwMGIZRtGFh4RAXN5f6fPGO/uqHRc2pLCZGZH1BA46RrmVrm6Ik19PmzXAJxJ1adTodLFu2bBJZWFgYpKWlQXR0NMTHx8OCBQsmgWKrqbi4BDDMTG2FsOlhEBdn9fh8bU/px8X3bEcwFU1GkQ3nb1nYafsroYL6NxbPjncnrKNZ7NdVcp7ROArz5k3eZiSA5OTlTCGNPOFnz46B+PgF1DXYx8dWWHFj8m/ruys/07QvdXCtzPN142OoD1MZSAkw39maMp9JHl25krP1yP6DH30ER48eta+FAKxZvYZyUb5GgoqJiYGEhATKWuQ935G//dunZW1leQ26FSw+WmSruqpnUCQLoTujEWPXgRced1kZYRgQ1hIx45ccZKdOnQLSz2Uyf4iPX0jtt87OThfGtiYdsbGx1P3eWUzOVNeXNukNlGtRSyLIv5FfqSuuPxQFPWGVgYAgYsx4+MUEpnLi1sXcEHCtRqbrtbW1UF9fD+Rectbee+89u6txiNK+vqYdM1vYKdQh5Ndnyr7okoRsp2kRgoC/rp5lkoiEk0o9npxWznFNnk3WvMjLFPnTo9cDENbzKzg4mDq6SfeiGmvqmNmCp319jey1plDUbZdYj/zmzJWFrZKIWrYAPw1HtS8nzHKfNPJK7Q4uAQSBAJM52Hj06vVw4+ZNGBgYgGeeeQaCFQrGZdkcT9Z01R25dn8hGx+GiaZTkDfl15pGWbXY6fhI76frFis8qXAzi7iT/1F91Db/+b9VNQ6ZzOwjsVmjTI6hZH03r/xCtzh4Lb0Wec39NOWxgdBAfyYH41j4RxLLOza3ewz3N5+rpwsFtNt9qMla/j4FJOdcyTytcNptmi2p3FjU0PHBmkTH0iVr3ZaWFiqwed7cm6y9vR0iZ0Q6LUFuUtdda9Abl5Br0skharHMIp8fbN6DwPa8a/f6xAGMZALCAgeWhj2cGRI4jStCZWUlXLp4EbZt305tTJfNQ9/r6OiAY8eOwZtvvslEcDbfG91D93dcaCAVa6+0EnBak5X8MxoWtamyz5asbfWZdsE+mYBgi3Hoi5cSHS4x1dXVoFarYePGjbwWca93tt0dd2FzczNV+E5/Kx3mxNrPGhOGw+oT1x6YLYTDq4DAgs/9XrVCa7UQ66GHWxIiR9OCsLubkuYxBbrCwkIICQmhoi+7sQE4i8ieuGFTUxMVCMmgSLedFxrKqrqH2JGcPPm+rMhK2mKl4byP/Pab/0Z2yqa1sN8FyQr83gRF54JwhdP94lZAGzJPLk1cXurGh0W/L20hU3YmbgAC40IRFlGauZIMPjYonJl7cktzOqRT32d3k486qvny9iVR02d66PLMdLKQh6IorF3LHIpucNvhXm7uLcwpvPs0dwIByOYKZdIx9pshb6jYmVdZoxfLrZcPW0MJC5E1J7BteUyY06IdRcpBmp9/HlBU6DWQ49WdtUevd9hkcHjW+UqjTN7EBec05m09d0M/KPS3papW6YQEDqkK4m7Gsjhmz7hzK28tYsYJ2FHQcK3u4TB1zHLaZYlufO3VnFTrbYtpLt4Q3z11VTHiJ28ZQX1tDy12k0/Fjf17U2aLpstlDo8wfKC0Wi2VM7E3rzPwpW397fuv3EHMODGD5xpa7iMeTyvKSDXxzXeZheTkXZqqE4Roh4W+cr6H/wgYNaiWRflHBjuc0O6MxBknoKl3tDr7chPy0DDBfQehXbXcBxtfXbQt1eAMBC8QB48kK/Xnqtr7hDLH1IA8RggcBvSDDVEKGbFxcUTwE2EBDue8q9u9YcIyVNDUU3+8ulM8Mo7xuREdGAqMUr/0ul8sMrrSEAcIBwLr6+4zJUd0PoosqnRka0HjA+3VvTjz4oMKkI45Cr8bC6b5o7OCfMFXJPQTChCZAEGoG6h+dGLsP/d6TdpeQ6hpAp9rTYGtxydfIwDZW6FMsr+oukDiSYLLTM/+R+HSYYnsdL8ogLLOQI++a8gs4LlNThbQacTnGyCgEEGILeXK5fc89VOvgNBM950pzjTgoswbA0BWEn6kRoH/FyIg/lC+eXkh60Dy6K+tfhAQepFlX2riBLhlBwGC1wBg6g9EVAwA5zBMePb6tiUd3vB4xKouz1IIwNKjFYsFOP4sAkQSAQiZiLEDpx4AGgEBHHAgP3cDQD2KW/LKVCkD3gjvSGt34f8Bh1dFXh12EoYAAAAASUVORK5CYII=;strokeColor=#000000;spacingTop=-3;spacingBottom=-3;spacingLeft=-3;spacingRight=-3;points=[];labelBackgroundColor=#ffffff;rounded=0;html=1;whiteSpace=wrap;" parent="2" vertex="1">
          <mxGeometry x="1041" y="130" width="40" height="40" as="geometry" />
        </mxCell>
        <mxCell id="16" style="vsdxID=14;fillColor=#ffffff;gradientColor=none;shape=stencil(vVLBDoMgDP0ajiwIM9nduf8gE5WMials6t8PU+JE3Q477Nb2vb6+UojIulq2inDWObA31evC1UScCee6qRVo5yMiciKy0oKqwD6aAvNWTswputvnpDBgH5s6OBsxSzG9IFPC1UMQmDxFKoxxHuCE7UqxgcpBdxSsk07bJppqJFSK+jG0NLIKOgh1vVLtovy7sf/Z8sH7mUttDF5pxj/dIDke0sjkXAiNRjcL+ild0efCZU99Q/+uvjGzVo+2XG3og/XH8yX8tCJ/AQ==);strokeColor=#000000;spacingTop=-3;spacingBottom=-3;spacingLeft=-3;spacingRight=-3;points=[];labelBackgroundColor=none;rounded=0;html=1;whiteSpace=wrap;" parent="2" vertex="1">
          <mxGeometry x="780" y="-125" width="30" height="30" as="geometry" />
        </mxCell>
        <mxCell id="17" style="vsdxID=1510000;fillColor=none;gradientColor=none;strokeColor=none;spacingTop=-3;spacingBottom=-3;spacingLeft=-3;spacingRight=-3;points=[];labelBackgroundColor=none;rounded=0;html=1;whiteSpace=wrap;" parent="2" vertex="1">
          <mxGeometry as="geometry" />
        </mxCell>
        <mxCell id="18" value="&lt;div style=&quot;font-size: 1px&quot;&gt;&lt;font style=&quot;font-size:10.67px;font-family:Helvetica;color:#000000;direction:ltr;letter-spacing:0px;line-height:120%;opacity:1&quot;&gt;Yes&lt;/font&gt;&lt;/div&gt;" style="verticalAlign=middle;align=center;overflow=width;vsdxID=17;fillColor=none;gradientColor=none;strokeColor=none;spacingTop=-3;spacingBottom=-3;spacingLeft=-3;spacingRight=-3;points=[];labelBackgroundColor=#ffffff;rounded=0;html=1;whiteSpace=wrap;" parent="17" vertex="1">
          <mxGeometry as="geometry" />
        </mxCell>
        <UserObject label="" tags="Background" id="60">
          <mxCell style="vsdxID=15;edgeStyle=none;startArrow=none;endArrow=classic;startSize=5;endSize=5;strokeColor=#000000;spacingTop=0;spacingBottom=0;spacingLeft=0;spacingRight=0;verticalAlign=middle;html=1;labelBackgroundColor=#ffffff;rounded=0;exitX=0.5;exitY=0;exitDx=0;exitDy=0;exitPerimeter=0;entryX=0.5;entryY=1;entryDx=0;entryDy=0;entryPerimeter=0;" parent="17" source="19" target="16" edge="1">
            <mxGeometry relative="1" as="geometry">
              <mxPoint y="194" as="offset" />
              <Array as="points" />
            </mxGeometry>
          </mxCell>
        </UserObject>
        <mxCell id="19" value="&lt;div style=&quot;font-size: 1px&quot;&gt;&lt;font style=&quot;font-size:11.64px;font-family:Helvetica;color:#000000;direction:ltr;letter-spacing:0px;line-height:120%;opacity:1&quot;&gt;Is file marked for deletion or awaiting ERDA synchronization&lt;br/&gt;&lt;/font&gt;&lt;font style=&quot;font-size:11.64px;font-family:Helvetica;color:#000000;direction:ltr;letter-spacing:0px;line-height:120%;opacity:1&quot;&gt;&lt;br/&gt;&lt;/font&gt;&lt;/div&gt;" style="verticalAlign=middle;align=center;overflow=width;vsdxID=16;fillColor=#ffffff;gradientColor=none;shape=stencil(nZBLDoQgEERP03uk4wnUuYeJKB0RDDKj3l5Ix/iJcTG7KnhVSRdgMel6VCDFFLzr1UxN0IAlSElWK08hKsAKsGidV513X9uwH+tEJjW4X2pYOJeLFJFiZcvuw6QheyIzcUXzF/bWukcf2b9bL2QUx4ktGcMLnf/vk8QnnhOrDQ==);strokeColor=#000000;spacingTop=-3;spacingBottom=-3;spacingLeft=-3;spacingRight=-3;points=[];labelBackgroundColor=none;rounded=0;html=1;whiteSpace=wrap;" parent="2" vertex="1">
          <mxGeometry x="755" y="90" width="80" height="80" as="geometry" />
        </mxCell>
        <mxCell id="20" style="vsdxID=1810000;fillColor=none;gradientColor=none;strokeColor=none;spacingTop=-3;spacingBottom=-3;spacingLeft=-3;spacingRight=-3;points=[];labelBackgroundColor=none;rounded=0;html=1;whiteSpace=wrap;" parent="2" vertex="1">
          <mxGeometry as="geometry" />
        </mxCell>
        <mxCell id="21" value="&lt;div style=&quot;font-size: 1px&quot;&gt;&lt;font style=&quot;font-size:10.67px;font-family:Helvetica;color:#000000;direction:ltr;letter-spacing:0px;line-height:120%;opacity:1&quot;&gt;Yes&lt;/font&gt;&lt;/div&gt;" style="verticalAlign=middle;align=center;overflow=width;vsdxID=19;fillColor=none;gradientColor=none;strokeColor=none;spacingTop=-3;spacingBottom=-3;spacingLeft=-3;spacingRight=-3;points=[];labelBackgroundColor=#ffffff;rounded=0;html=1;whiteSpace=wrap;" parent="20" vertex="1">
          <mxGeometry as="geometry" />
        </mxCell>
        <UserObject label="" tags="Background" id="61">
          <mxCell style="vsdxID=18;edgeStyle=none;startArrow=none;endArrow=classic;startSize=5;endSize=5;strokeColor=#000000;spacingTop=0;spacingBottom=0;spacingLeft=0;spacingRight=0;verticalAlign=middle;html=1;labelBackgroundColor=#ffffff;rounded=0;exitX=1;exitY=0.5;exitDx=0;exitDy=0;exitPerimeter=0;entryX=0;entryY=0.5;entryDx=0;entryDy=0;entryPerimeter=0;" parent="20" source="22" target="19" edge="1">
            <mxGeometry relative="1" as="geometry">
              <mxPoint x="-18" y="102" as="offset" />
              <Array as="points" />
            </mxGeometry>
          </mxCell>
        </UserObject>
        <mxCell id="22" value="&lt;div style=&quot;font-size: 1px&quot;&gt;&lt;font style=&quot;font-size:11.64px;font-family:Helvetica;color:#000000;direction:ltr;letter-spacing:0px;line-height:120%;opacity:1&quot;&gt;Does file exist in asset?&lt;/font&gt;&lt;/div&gt;" style="verticalAlign=middle;align=center;overflow=width;vsdxID=8;fillColor=#ffffff;gradientColor=none;shape=stencil(nZBLDoQgEERP03uk4wnUuYeJKB0RDDKj3l5Ix/iJcTG7KnhVSRdgMel6VCDFFLzr1UxN0IAlSElWK08hKsAKsGidV513X9uwH+tEJjW4X2pYOJeLFJFiZcvuw6QheyIzcUXzF/bWukcf2b9bL2QUx4ktGcMLnf/vk8QnnhOrDQ==);strokeColor=#000000;spacingTop=-3;spacingBottom=-3;spacingLeft=-3;spacingRight=-3;points=[];labelBackgroundColor=none;rounded=0;html=1;whiteSpace=wrap;" parent="2" vertex="1">
          <mxGeometry x="640" y="90" width="80" height="80" as="geometry" />
        </mxCell>
        <UserObject label="&lt;div style=&quot;font-size: 1px&quot;&gt;&lt;font style=&quot;font-size:11.64px;font-family:Helvetica;color:#000000;direction:ltr;letter-spacing:0px;line-height:120%;opacity:1&quot;&gt;Start&lt;/font&gt;&lt;/div&gt;" tags="Background" id="23">
          <mxCell style="verticalAlign=middle;align=center;overflow=width;vsdxID=21;fillColor=#ffffff;gradientColor=none;shape=stencil(vVHLDsIgEPwajiQI6RfU+h8bu22JCGRB2/69kG1iazx58DazM/vIjjBtmiCi0CplCjecbZ8nYc5Ca+snJJsLEqYTph0C4Ujh4XvmEaqzont41gkL96naodXKrGF6YSfQtUi0OXXDVlqPfJNP6usotUhYbJIUMmQb/GGrAxpRljVycDBuc1hKM2LclX8/7H9nFfB+82Cd45T2+mcspcSRmu4F);strokeColor=#000000;spacingTop=-3;spacingBottom=-3;spacingLeft=-3;spacingRight=-3;points=[];labelBackgroundColor=none;rounded=0;html=1;whiteSpace=wrap;" parent="1" vertex="1">
            <mxGeometry x="100" y="65" width="40" height="40" as="geometry" />
          </mxCell>
        </UserObject>
        <UserObject label="" tags="Background" id="24">
          <mxCell style="vsdxID=2210000;fillColor=none;gradientColor=none;strokeColor=none;spacingTop=-3;spacingBottom=-3;spacingLeft=-3;spacingRight=-3;points=[];labelBackgroundColor=none;rounded=0;html=1;whiteSpace=wrap;" parent="1" vertex="1">
            <mxGeometry x="20" y="410" width="1250" height="160" as="geometry" />
          </mxCell>
        </UserObject>
        <mxCell id="25" style="vsdxID=22;fillColor=#ffffff;gradientColor=none;shape=stencil(UzV2Ls5ILEhVNTIoLinKz04tz0wpyVA1dlE1MsrMy0gtyiwBslSNXVWNndPyi1LTi/JL81Ig/IJEkEoQKze/DGRCBUSfoZ6FCUiTkUElRMAAzHODqM3JzENSa0CeQkMDPEox7EdTDWQgnJ6WmZMD8Tlcnhr+gllJhlKK/EaBi0kJNbQQAzLQEwdQCJKwjF0B);strokeColor=#000000;spacingTop=-3;spacingBottom=-3;spacingLeft=-3;spacingRight=-3;points=[];labelBackgroundColor=none;rounded=0;html=1;whiteSpace=wrap;" parent="24" vertex="1">
          <mxGeometry width="1250" height="160" as="geometry" />
        </mxCell>
        <mxCell id="26" value="&lt;div style=&quot;font-size: 1px&quot;&gt;&lt;font style=&quot;font-size:11.64px;font-family:Helvetica;color:#000000;direction:ltr;letter-spacing:0px;line-height:120%;opacity:1&quot;&gt;&lt;b&gt;ARS&lt;/b&gt;&lt;/font&gt;&lt;/div&gt;" style="text;vsdxID=22;fillColor=none;gradientColor=none;strokeColor=none;spacingTop=-3;spacingBottom=-3;spacingLeft=-3;spacingRight=-3;points=[];labelBackgroundColor=none;rounded=0;html=1;whiteSpace=wrap;verticalAlign=middle;align=center;overflow=width;rotation=-89.77;;html=1;" parent="25" vertex="1">
          <mxGeometry x="-66.5" y="70.5" width="156" height="19" as="geometry" />
        </mxCell>
        <mxCell id="27" value="&lt;div style=&quot;font-size: 1px&quot;&gt;&lt;font style=&quot;font-size:11.64px;font-family:Helvetica;color:#000000;direction:ltr;letter-spacing:0px;line-height:120%;opacity:1&quot;&gt;Does user has access&lt;/font&gt;&lt;/div&gt;" style="verticalAlign=middle;align=center;overflow=width;vsdxID=23;fillColor=#ffffff;gradientColor=none;shape=stencil(nZBLDoQgEERP03uk4wnUuYeJKB0RDDKj3l5Ix/iJcTG7KnhVSRdgMel6VCDFFLzr1UxN0IAlSElWK08hKsAKsGidV513X9uwH+tEJjW4X2pYOJeLFJFiZcvuw6QheyIzcUXzF/bWukcf2b9bL2QUx4ktGcMLnf/vk8QnnhOrDQ==);strokeColor=#000000;strokeWidth=2;spacingTop=-3;spacingBottom=-3;spacingLeft=-3;spacingRight=-3;points=[];labelBackgroundColor=none;rounded=0;html=1;whiteSpace=wrap;" parent="24" vertex="1">
          <mxGeometry x="270" y="40" width="100" height="80" as="geometry" />
        </mxCell>
        <mxCell id="28" style="vsdxID=2410000;fillColor=none;gradientColor=none;strokeColor=none;spacingTop=-3;spacingBottom=-3;spacingLeft=-3;spacingRight=-3;points=[];labelBackgroundColor=none;rounded=0;html=1;whiteSpace=wrap;" parent="24" vertex="1">
          <mxGeometry as="geometry" />
        </mxCell>
        <mxCell id="29" value="&lt;div style=&quot;font-size: 1px&quot;&gt;&lt;font style=&quot;font-size:10.67px;font-family:Helvetica;color:#000000;direction:ltr;letter-spacing:0px;line-height:120%;opacity:1&quot;&gt;Yes&lt;/font&gt;&lt;/div&gt;" style="verticalAlign=middle;align=center;overflow=width;vsdxID=26;fillColor=none;gradientColor=none;strokeColor=none;spacingTop=-3;spacingBottom=-3;spacingLeft=-3;spacingRight=-3;points=[];labelBackgroundColor=#ffffff;rounded=0;html=1;whiteSpace=wrap;" parent="28" vertex="1">
          <mxGeometry as="geometry" />
        </mxCell>
        <UserObject label="" tags="Background" id="63">
          <mxCell style="vsdxID=24;edgeStyle=none;startArrow=none;endArrow=classic;startSize=5;endSize=5;strokeColor=#000000;spacingTop=0;spacingBottom=0;spacingLeft=0;spacingRight=0;verticalAlign=middle;html=1;labelBackgroundColor=#ffffff;rounded=0;exitX=1;exitY=0.5;exitDx=0;exitDy=0;exitPerimeter=0;entryX=0;entryY=0.5;entryDx=0;entryDy=0;entryPerimeter=0;" parent="28" source="30" target="27" edge="1">
            <mxGeometry relative="1" as="geometry">
              <mxPoint x="-15" y="102" as="offset" />
              <Array as="points" />
            </mxGeometry>
          </mxCell>
        </UserObject>
        <mxCell id="30" value="&lt;div style=&quot;font-size: 1px&quot;&gt;&lt;font style=&quot;font-size:11.64px;font-family:Helvetica;color:#000000;direction:ltr;letter-spacing:0px;line-height:120%;opacity:1&quot;&gt;Does asset exist?&lt;/font&gt;&lt;/div&gt;" style="verticalAlign=middle;align=center;overflow=width;vsdxID=25;fillColor=#ffffff;gradientColor=none;shape=stencil(nZBLDoQgEERP03uk4wnUuYeJKB0RDDKj3l5Ix/iJcTG7KnhVSRdgMel6VCDFFLzr1UxN0IAlSElWK08hKsAKsGidV513X9uwH+tEJjW4X2pYOJeLFJFiZcvuw6QheyIzcUXzF/bWukcf2b9bL2QUx4ktGcMLnf/vk8QnnhOrDQ==);strokeColor=#000000;strokeWidth=2;spacingTop=-3;spacingBottom=-3;spacingLeft=-3;spacingRight=-3;points=[];labelBackgroundColor=none;rounded=0;html=1;whiteSpace=wrap;" parent="24" vertex="1">
          <mxGeometry x="140" y="40" width="100" height="80" as="geometry" />
        </mxCell>
        <UserObject label="" tags="Background" id="31">
          <mxCell style="vsdxID=2710000;fillColor=none;gradientColor=none;strokeColor=none;spacingTop=-3;spacingBottom=-3;spacingLeft=-3;spacingRight=-3;points=[];labelBackgroundColor=none;rounded=0;html=1;whiteSpace=wrap;" parent="1" vertex="1">
            <mxGeometry x="20" y="570" width="1250" height="160" as="geometry" />
          </mxCell>
        </UserObject>
        <mxCell id="32" style="vsdxID=27;fillColor=#ffffff;gradientColor=none;shape=stencil(UzV2Ls5ILEhVNTIoLinKz04tz0wpyVA1dlE1MsrMy0gtyiwBslSNXVWNndPyi1LTi/JL81Ig/IJEkEoQKze/DGRCBUSfoZ6FCUiTkUElRMAAzHODqM3JzENSa0CeQkMDPEox7EdTDWQgnJ6WmZMD8Tlcnhr+gllJhlKK/EaBi0kJNbQQAzLQEwdQCJKwjF0B);strokeColor=#000000;spacingTop=-3;spacingBottom=-3;spacingLeft=-3;spacingRight=-3;points=[];labelBackgroundColor=none;rounded=0;html=1;whiteSpace=wrap;" parent="31" vertex="1">
          <mxGeometry width="1250" height="160" as="geometry" />
        </mxCell>
        <mxCell id="33" value="&lt;div style=&quot;font-size: 1px&quot;&gt;&lt;font style=&quot;font-size:11.64px;font-family:Helvetica;color:#000000;direction:ltr;letter-spacing:0px;line-height:120%;opacity:1&quot;&gt;&lt;b&gt;ERDA&lt;/b&gt;&lt;/font&gt;&lt;/div&gt;" style="text;vsdxID=27;fillColor=none;gradientColor=none;strokeColor=none;spacingTop=-3;spacingBottom=-3;spacingLeft=-3;spacingRight=-3;points=[];labelBackgroundColor=none;rounded=0;html=1;whiteSpace=wrap;verticalAlign=middle;align=center;overflow=width;rotation=-89.77;;html=1;" parent="32" vertex="1">
          <mxGeometry x="-66.5" y="70.5" width="156" height="19" as="geometry" />
        </mxCell>
        <mxCell id="34" style="vsdxID=28;fillColor=#757575;gradientColor=none;shape=stencil(vVHLDsIgEPwajiQI6RfU+h8bu22JCGRB2/69kG1iazx58DazM/vIjjBtmiCi0CplCjecbZ8nYc5Ca+snJJsLEqYTph0C4Ujh4XvmEaqzont41gkL96naodXKrGF6YSfQtUi0OXXDVlqPfJNP6usotUhYbJIUMmQb/GGrAxpRljVycDBuc1hKM2LclX8/7H9nFfB+82Cd45T2+mcspcSRmu4F);strokeColor=#000000;spacingTop=-3;spacingBottom=-3;spacingLeft=-3;spacingRight=-3;points=[];labelBackgroundColor=none;rounded=0;html=1;whiteSpace=wrap;" parent="31" vertex="1">
          <mxGeometry x="928" y="-494" width="34" height="34" as="geometry" />
        </mxCell>
        <mxCell id="35" value="&lt;div style=&quot;font-size: 1px&quot;&gt;&lt;font style=&quot;font-size:11.64px;font-family:Helvetica;color:#000000;direction:ltr;letter-spacing:0px;line-height:120%;opacity:1&quot;&gt;Update cache metadata&lt;/font&gt;&lt;/div&gt;" style="verticalAlign=middle;align=center;overflow=width;vsdxID=30;fillColor=#ffffff;gradientColor=none;shape=stencil(nZBdDsIgEIRPs+8UEi9Q6wU8AZFVNiI0FH9PL+3EBI1PfduZ+SabDJl+8nZk0moqOZ35Lq54MlvSWqLnLKVeZAYy/TFlPuV0jQ56tJXUanHYodPNtFY2H/byYngbeChd0m1+9kCkED1btQMYJDZgp1ajH/0XXo1+gfVYxsBMEgK2bPPf8aqF4c3wBg==);strokeColor=#000000;strokeWidth=2;spacingTop=-3;spacingBottom=-3;spacingLeft=-3;spacingRight=-3;points=[];labelBackgroundColor=none;rounded=1;html=1;whiteSpace=wrap;" parent="31" vertex="1">
          <mxGeometry x="885" y="-340" width="120" height="40" as="geometry" />
        </mxCell>
        <mxCell id="36" value="&lt;div style=&quot;font-size: 1px&quot;&gt;&lt;font style=&quot;font-size:11.64px;font-family:Helvetica;color:#000000;direction:ltr;letter-spacing:0px;line-height:120%;opacity:1&quot;&gt;Store file on disk&lt;/font&gt;&lt;/div&gt;" style="verticalAlign=middle;align=center;overflow=width;vsdxID=32;fillColor=#ffffff;gradientColor=none;shape=stencil(nZBdDsIgEIRPs+8UEi9Q6wU8AZFVNiI0FH9PL+3EBI1PfduZ+SabDJl+8nZk0moqOZ35Lq54MlvSWqLnLKVeZAYy/TFlPuV0jQ56tJXUanHYodPNtFY2H/byYngbeChd0m1+9kCkED1btQMYJDZgp1ajH/0XXo1+gfVYxsBMEgK2bPPf8aqF4c3wBg==);strokeColor=#000000;strokeWidth=2;spacingTop=-3;spacingBottom=-3;spacingLeft=-3;spacingRight=-3;points=[];labelBackgroundColor=none;rounded=1;html=1;whiteSpace=wrap;" parent="31" vertex="1">
          <mxGeometry x="885" y="-230" width="120" height="40" as="geometry" />
        </mxCell>
        <mxCell id="37" value="&lt;div style=&quot;font-size: 1px&quot;&gt;&lt;font style=&quot;font-size:11.64px;font-family:Helvetica;color:#000000;direction:ltr;letter-spacing:0px;line-height:120%;opacity:1&quot;&gt;GetFile&lt;/font&gt;&lt;/div&gt;" style="verticalAlign=middle;align=center;overflow=width;vsdxID=34;fillColor=#ffffff;gradientColor=none;shape=stencil(nZBdDsIgEIRPs+8UEi9Q6wU8AZFVNiI0FH9PL+3EBI1PfduZ+SabDJl+8nZk0moqOZ35Lq54MlvSWqLnLKVeZAYy/TFlPuV0jQ56tJXUanHYodPNtFY2H/byYngbeChd0m1+9kCkED1btQMYJDZgp1ajH/0XXo1+gfVYxsBMEgK2bPPf8aqF4c3wBg==);strokeColor=#000000;strokeWidth=2;spacingTop=-3;spacingBottom=-3;spacingLeft=-3;spacingRight=-3;points=[];labelBackgroundColor=none;rounded=1;html=1;whiteSpace=wrap;" parent="31" vertex="1">
          <mxGeometry x="747" y="90" width="120" height="40" as="geometry" />
        </mxCell>
        <UserObject label="" tags="Background" id="64">
          <mxCell style="vsdxID=29;edgeStyle=none;startArrow=none;endArrow=classic;startSize=5;endSize=5;strokeColor=#000000;spacingTop=0;spacingBottom=0;spacingLeft=0;spacingRight=0;verticalAlign=middle;html=1;labelBackgroundColor=#ffffff;rounded=0;exitX=0.5;exitY=0;exitDx=0;exitDy=0;exitPerimeter=0;entryX=0.5;entryY=1;entryDx=0;entryDy=0;entryPerimeter=0;" parent="31" source="35" target="34" edge="1">
            <mxGeometry relative="1" as="geometry">
              <mxPoint y="161" as="offset" />
              <Array as="points" />
            </mxGeometry>
          </mxCell>
        </UserObject>
        <UserObject label="" tags="Background" id="65">
          <mxCell style="vsdxID=31;edgeStyle=none;startArrow=none;endArrow=classic;startSize=5;endSize=5;strokeColor=#000000;spacingTop=0;spacingBottom=0;spacingLeft=0;spacingRight=0;verticalAlign=middle;html=1;labelBackgroundColor=#ffffff;rounded=0;exitX=0.5;exitY=0;exitDx=0;exitDy=0;exitPerimeter=0;entryX=0.5;entryY=1;entryDx=0;entryDy=0;entryPerimeter=0;" parent="31" source="36" target="35" edge="1">
            <mxGeometry relative="1" as="geometry">
              <mxPoint y="136" as="offset" />
              <Array as="points" />
            </mxGeometry>
          </mxCell>
        </UserObject>
        <UserObject label="" tags="Background" id="66">
          <mxCell style="vsdxID=33;edgeStyle=none;startArrow=none;endArrow=classic;startSize=5;endSize=5;strokeColor=#000000;spacingTop=0;spacingBottom=0;spacingLeft=0;spacingRight=0;verticalAlign=middle;html=1;labelBackgroundColor=#ffffff;rounded=0;exitX=1;exitY=0.5;exitDx=0;exitDy=0;exitPerimeter=0;entryX=0.5;entryY=1;entryDx=0;entryDy=0;entryPerimeter=0;" parent="31" source="37" target="36" edge="1">
            <mxGeometry relative="1" as="geometry">
              <mxPoint x="-78" y="212" as="offset" />
              <Array as="points">
                <mxPoint x="945" y="110" />
              </Array>
            </mxGeometry>
          </mxCell>
        </UserObject>
        <UserObject label="" tags="Background" id="38">
          <mxCell style="vsdxID=36;fillColor=#ffffff;gradientColor=none;shape=stencil(vVLBDoMgDP0ajiwIM9nduf8gE5WMials6t8PU+JE3Q477Nb2vb6+UojIulq2inDWObA31evC1UScCee6qRVo5yMiciKy0oKqwD6aAvNWTswputvnpDBgH5s6OBsxSzG9IFPC1UMQmDxFKoxxHuCE7UqxgcpBdxSsk07bJppqJFSK+jG0NLIKOgh1vVLtovy7sf/Z8sH7mUttDF5pxj/dIDke0sjkXAiNRjcL+ild0efCZU99Q/+uvjGzVo+2XG3og/XH8yX8tCJ/AQ==);strokeColor=#000000;spacingTop=-3;spacingBottom=-3;spacingLeft=-3;spacingRight=-3;points=[];labelBackgroundColor=none;rounded=0;html=1;whiteSpace=wrap;" parent="1" vertex="1">
            <mxGeometry x="325" y="75" width="30" height="30" as="geometry" />
          </mxCell>
        </UserObject>
        <UserObject label="" tags="Background" id="39">
          <mxCell style="vsdxID=3710000;fillColor=none;gradientColor=none;strokeColor=none;spacingTop=-3;spacingBottom=-3;spacingLeft=-3;spacingRight=-3;points=[];labelBackgroundColor=none;rounded=0;html=1;whiteSpace=wrap;" parent="1" vertex="1">
            <mxGeometry as="geometry" />
          </mxCell>
        </UserObject>
        <mxCell id="40" value="&lt;div style=&quot;font-size: 1px&quot;&gt;&lt;font style=&quot;font-size:10.67px;font-family:Helvetica;color:#000000;direction:ltr;letter-spacing:0px;line-height:120%;opacity:1&quot;&gt;No&lt;/font&gt;&lt;/div&gt;" style="verticalAlign=middle;align=center;overflow=width;vsdxID=38;fillColor=none;gradientColor=none;strokeColor=none;spacingTop=-3;spacingBottom=-3;spacingLeft=-3;spacingRight=-3;points=[];labelBackgroundColor=#ffffff;rounded=0;html=1;whiteSpace=wrap;" parent="39" vertex="1">
          <mxGeometry as="geometry" />
        </mxCell>
        <UserObject label="" tags="Background" id="68">
          <mxCell style="vsdxID=37;edgeStyle=none;startArrow=none;endArrow=classic;startSize=5;endSize=5;strokeColor=#000000;spacingTop=0;spacingBottom=0;spacingLeft=0;spacingRight=0;verticalAlign=middle;html=1;labelBackgroundColor=#ffffff;rounded=0;exitX=0.5;exitY=0;exitDx=0;exitDy=0;exitPerimeter=0;entryX=0.5;entryY=1;entryDx=0;entryDy=0;entryPerimeter=0;" parent="39" source="27" target="38" edge="1">
            <mxGeometry relative="1" as="geometry">
              <mxPoint y="274" as="offset" />
              <Array as="points" />
            </mxGeometry>
          </mxCell>
        </UserObject>
        <UserObject label="&lt;div style=&quot;font-size: 1px&quot;&gt;&lt;font style=&quot;font-size:11.64px;font-family:Helvetica;color:#000000;direction:ltr;letter-spacing:0px;line-height:120%;opacity:1&quot;&gt;403&lt;/font&gt;&lt;/div&gt;" tags="Background" id="41">
          <mxCell style="verticalAlign=middle;align=center;overflow=width;vsdxID=39;fillColor=none;gradientColor=none;shape=stencil(nZBRDoQgDERP03+WHsHFe5iISyOCQdT19kIaIxq//Jtp3zTpAFaTaUYNUkwx+F6v1EYD+AUpyRkdKCYFqACrzgf9C352LfuxyWRWg1/yhT/nRE5IsZWuZtCSK8CPeI0e/hF+jV7AJM4PO7KWCyr390bSiNtEtQM=);strokeColor=none;spacingTop=-3;spacingBottom=-3;spacingLeft=-3;spacingRight=-3;points=[];labelBackgroundColor=none;rounded=0;html=1;whiteSpace=wrap;" parent="1" vertex="1">
            <mxGeometry x="310" y="45" width="60" height="30" as="geometry" />
          </mxCell>
        </UserObject>
        <UserObject label="" tags="Background" id="42">
          <mxCell style="vsdxID=4010000;fillColor=none;gradientColor=none;strokeColor=none;spacingTop=-3;spacingBottom=-3;spacingLeft=-3;spacingRight=-3;points=[];labelBackgroundColor=none;rounded=0;html=1;whiteSpace=wrap;" parent="1" vertex="1">
            <mxGeometry as="geometry" />
          </mxCell>
        </UserObject>
        <mxCell id="43" value="&lt;div style=&quot;font-size: 1px&quot;&gt;&lt;font style=&quot;font-size:10.67px;font-family:Helvetica;color:#000000;direction:ltr;letter-spacing:0px;line-height:120%;opacity:1&quot;&gt;Yes&lt;/font&gt;&lt;/div&gt;" style="verticalAlign=middle;align=center;overflow=width;vsdxID=41;fillColor=none;gradientColor=none;strokeColor=none;spacingTop=-3;spacingBottom=-3;spacingLeft=-3;spacingRight=-3;points=[];labelBackgroundColor=#ffffff;rounded=0;html=1;whiteSpace=wrap;" parent="42" vertex="1">
          <mxGeometry as="geometry" />
        </mxCell>
        <UserObject label="" tags="Background" id="69">
          <mxCell style="vsdxID=40;edgeStyle=none;startArrow=none;endArrow=classic;startSize=5;endSize=5;strokeColor=#000000;spacingTop=0;spacingBottom=0;spacingLeft=0;spacingRight=0;verticalAlign=middle;html=1;labelBackgroundColor=#ffffff;rounded=0;exitX=1;exitY=0.5;exitDx=0;exitDy=0;exitPerimeter=0;entryX=0.5;entryY=1;entryDx=0;entryDy=0;entryPerimeter=0;" parent="42" source="27" target="10" edge="1">
            <mxGeometry relative="1" as="geometry">
              <mxPoint x="-30" y="146" as="offset" />
              <Array as="points">
                <mxPoint x="420" y="490" />
              </Array>
            </mxGeometry>
          </mxCell>
        </UserObject>
        <UserObject label="" tags="Background" id="44">
          <mxCell style="vsdxID=42;fillColor=#757575;gradientColor=none;shape=stencil(vVHLDsIgEPwajiQI6RfU+h8bu22JCGRB2/69kG1iazx58DazM/vIjjBtmiCi0CplCjecbZ8nYc5Ca+snJJsLEqYTph0C4Ujh4XvmEaqzont41gkL96naodXKrGF6YSfQtUi0OXXDVlqPfJNP6usotUhYbJIUMmQb/GGrAxpRljVycDBuc1hKM2LclX8/7H9nFfB+82Cd45T2+mcspcSRmu4F);strokeColor=#000000;spacingTop=-3;spacingBottom=-3;spacingLeft=-3;spacingRight=-3;points=[];labelBackgroundColor=none;rounded=0;html=1;whiteSpace=wrap;" parent="1" vertex="1">
            <mxGeometry x="573" y="76" width="34" height="34" as="geometry" />
          </mxCell>
        </UserObject>
        <UserObject label="&lt;div style=&quot;font-size: 1px&quot;&gt;&lt;font style=&quot;font-size:11.64px;font-family:Helvetica;color:#000000;direction:ltr;letter-spacing:0px;line-height:120%;opacity:1&quot;&gt;File is returned&lt;/font&gt;&lt;/div&gt;" tags="Background" id="45">
          <mxCell style="verticalAlign=middle;align=center;overflow=width;vsdxID=43;fillColor=none;gradientColor=none;shape=stencil(nZBRDoQgDERP03+WHsHFe5iISyOCQdT19kIaIxq//Jtp3zTpAFaTaUYNUkwx+F6v1EYD+AUpyRkdKCYFqACrzgf9C352LfuxyWRWg1/yhT/nRE5IsZWuZtCSK8CPeI0e/hF+jV7AJM4PO7KWCyr390bSiNtEtQM=);strokeColor=none;spacingTop=-3;spacingBottom=-3;spacingLeft=-3;spacingRight=-3;points=[];labelBackgroundColor=none;rounded=0;html=1;whiteSpace=wrap;" parent="1" vertex="1">
            <mxGeometry x="560" y="45" width="60" height="30" as="geometry" />
          </mxCell>
        </UserObject>
        <UserObject label="&lt;div style=&quot;font-size: 1px&quot;&gt;&lt;font style=&quot;font-size:11.64px;font-family:Helvetica;color:#000000;direction:ltr;letter-spacing:0px;line-height:120%;opacity:1&quot;&gt;400&lt;/font&gt;&lt;/div&gt;" tags="Background" id="46">
          <mxCell style="verticalAlign=middle;align=center;overflow=width;vsdxID=44;fillColor=none;gradientColor=none;shape=stencil(nZBRDoQgDERP03+WHsHFe5iISyOCQdT19kIaIxq//Jtp3zTpAFaTaUYNUkwx+F6v1EYD+AUpyRkdKCYFqACrzgf9C352LfuxyWRWg1/yhT/nRE5IsZWuZtCSK8CPeI0e/hF+jV7AJM4PO7KWCyr390bSiNtEtQM=);strokeColor=none;spacingTop=-3;spacingBottom=-3;spacingLeft=-3;spacingRight=-3;points=[];labelBackgroundColor=none;rounded=0;html=1;whiteSpace=wrap;" parent="1" vertex="1">
            <mxGeometry x="784" y="47" width="60" height="30" as="geometry" />
          </mxCell>
        </UserObject>
        <UserObject label="&lt;div style=&quot;font-size: 1px&quot;&gt;&lt;font style=&quot;font-size:11.64px;font-family:Helvetica;color:#000000;direction:ltr;letter-spacing:0px;line-height:120%;opacity:1&quot;&gt;File is returned&lt;/font&gt;&lt;/div&gt;" tags="Background" id="47">
          <mxCell style="verticalAlign=middle;align=center;overflow=width;vsdxID=45;fillColor=none;gradientColor=none;shape=stencil(nZBRDoQgDERP03+WHsHFe5iISyOCQdT19kIaIxq//Jtp3zTpAFaTaUYNUkwx+F6v1EYD+AUpyRkdKCYFqACrzgf9C352LfuxyWRWg1/yhT/nRE5IsZWuZtCSK8CPeI0e/hF+jV7AJM4PO7KWCyr390bSiNtEtQM=);strokeColor=none;spacingTop=-3;spacingBottom=-3;spacingLeft=-3;spacingRight=-3;points=[];labelBackgroundColor=none;rounded=0;html=1;whiteSpace=wrap;" parent="1" vertex="1">
            <mxGeometry x="930" y="40" width="60" height="30" as="geometry" />
          </mxCell>
        </UserObject>
        <UserObject label="" tags="Background" id="48">
          <mxCell style="vsdxID=47;fillColor=#ffffff;gradientColor=none;shape=stencil(vVLBDoMgDP0ajiwIM9nduf8gE5WMials6t8PU+JE3Q477Nb2vb6+UojIulq2inDWObA31evC1UScCee6qRVo5yMiciKy0oKqwD6aAvNWTswputvnpDBgH5s6OBsxSzG9IFPC1UMQmDxFKoxxHuCE7UqxgcpBdxSsk07bJppqJFSK+jG0NLIKOgh1vVLtovy7sf/Z8sH7mUttDF5pxj/dIDke0sjkXAiNRjcL+ild0efCZU99Q/+uvjGzVo+2XG3og/XH8yX8tCJ/AQ==);strokeColor=#000000;spacingTop=-3;spacingBottom=-3;spacingLeft=-3;spacingRight=-3;points=[];labelBackgroundColor=none;rounded=0;html=1;whiteSpace=wrap;" parent="1" vertex="1">
            <mxGeometry x="195" y="75" width="30" height="30" as="geometry" />
          </mxCell>
        </UserObject>
        <UserObject label="&lt;div style=&quot;font-size: 1px&quot;&gt;&lt;font style=&quot;font-size:11.64px;font-family:Helvetica;color:#000000;direction:ltr;letter-spacing:0px;line-height:120%;opacity:1&quot;&gt;404&lt;/font&gt;&lt;/div&gt;" tags="Background" id="49">
          <mxCell style="verticalAlign=middle;align=center;overflow=width;vsdxID=48;fillColor=none;gradientColor=none;shape=stencil(nZBRDoQgDERP03+WHsHFe5iISyOCQdT19kIaIxq//Jtp3zTpAFaTaUYNUkwx+F6v1EYD+AUpyRkdKCYFqACrzgf9C352LfuxyWRWg1/yhT/nRE5IsZWuZtCSK8CPeI0e/hF+jV7AJM4PO7KWCyr390bSiNtEtQM=);strokeColor=none;spacingTop=-3;spacingBottom=-3;spacingLeft=-3;spacingRight=-3;points=[];labelBackgroundColor=none;rounded=0;html=1;whiteSpace=wrap;" parent="1" vertex="1">
            <mxGeometry x="180" y="45" width="60" height="30" as="geometry" />
          </mxCell>
        </UserObject>
        <UserObject label="" tags="Background" id="50">
          <mxCell style="vsdxID=4910000;fillColor=none;gradientColor=none;strokeColor=none;spacingTop=-3;spacingBottom=-3;spacingLeft=-3;spacingRight=-3;points=[];labelBackgroundColor=none;rounded=0;html=1;whiteSpace=wrap;" parent="1" vertex="1">
            <mxGeometry as="geometry" />
          </mxCell>
        </UserObject>
        <mxCell id="51" value="&lt;div style=&quot;font-size: 1px&quot;&gt;&lt;font style=&quot;font-size:10.67px;font-family:Helvetica;color:#000000;direction:ltr;letter-spacing:0px;line-height:120%;opacity:1&quot;&gt;No&lt;/font&gt;&lt;/div&gt;" style="verticalAlign=middle;align=center;overflow=width;vsdxID=50;fillColor=none;gradientColor=none;strokeColor=none;spacingTop=-3;spacingBottom=-3;spacingLeft=-3;spacingRight=-3;points=[];labelBackgroundColor=#ffffff;rounded=0;html=1;whiteSpace=wrap;" parent="50" vertex="1">
          <mxGeometry as="geometry" />
        </mxCell>
        <UserObject label="" tags="Background" id="71">
          <mxCell style="vsdxID=49;edgeStyle=none;startArrow=none;endArrow=classic;startSize=5;endSize=5;strokeColor=#000000;spacingTop=0;spacingBottom=0;spacingLeft=0;spacingRight=0;verticalAlign=middle;html=1;labelBackgroundColor=#ffffff;rounded=0;exitX=0.5;exitY=0;exitDx=0;exitDy=0;exitPerimeter=0;entryX=0.5;entryY=1;entryDx=0;entryDy=0;entryPerimeter=0;" parent="50" source="30" target="48" edge="1">
            <mxGeometry relative="1" as="geometry">
              <mxPoint y="274" as="offset" />
              <Array as="points" />
            </mxGeometry>
          </mxCell>
        </UserObject>
        <UserObject label="" tags="Background" id="52">
          <mxCell style="vsdxID=5110000;fillColor=none;gradientColor=none;strokeColor=none;spacingTop=-3;spacingBottom=-3;spacingLeft=-3;spacingRight=-3;points=[];labelBackgroundColor=none;rounded=0;html=1;whiteSpace=wrap;" parent="1" vertex="1">
            <mxGeometry as="geometry" />
          </mxCell>
        </UserObject>
        <mxCell id="53" value="&lt;div style=&quot;font-size: 1px&quot;&gt;&lt;font style=&quot;font-size:10.67px;font-family:Helvetica;color:#000000;direction:ltr;letter-spacing:0px;line-height:120%;opacity:1&quot;&gt;No&lt;/font&gt;&lt;/div&gt;" style="verticalAlign=middle;align=center;overflow=width;vsdxID=52;fillColor=none;gradientColor=none;strokeColor=none;spacingTop=-3;spacingBottom=-3;spacingLeft=-3;spacingRight=-3;points=[];labelBackgroundColor=#ffffff;rounded=0;html=1;whiteSpace=wrap;" parent="52" vertex="1">
          <mxGeometry as="geometry" />
        </mxCell>
        <UserObject label="" tags="Background" id="72">
          <mxCell style="vsdxID=51;edgeStyle=none;startArrow=none;endArrow=classic;startSize=5;endSize=5;strokeColor=#000000;spacingTop=0;spacingBottom=0;spacingLeft=0;spacingRight=0;verticalAlign=middle;html=1;labelBackgroundColor=#ffffff;rounded=0;exitX=0.5;exitY=1;exitDx=0;exitDy=0;exitPerimeter=0;entryX=0.4;entryY=-0.05;entryDx=0;entryDy=0;entryPerimeter=0;" parent="52" source="19" target="37" edge="1">
            <mxGeometry relative="1" as="geometry">
              <mxPoint y="245" as="offset" />
              <Array as="points" />
            </mxGeometry>
          </mxCell>
        </UserObject>
        <UserObject label="" tags="Background" id="54">
          <mxCell style="vsdxID=53;fillColor=#ffffff;gradientColor=none;shape=stencil(vVLBDoMgDP0ajiwIM9nduf8gE5WMials6t8PU+JE3Q477Nb2vb6+UojIulq2inDWObA31evC1UScCee6qRVo5yMiciKy0oKqwD6aAvNWTswputvnpDBgH5s6OBsxSzG9IFPC1UMQmDxFKoxxHuCE7UqxgcpBdxSsk07bJppqJFSK+jG0NLIKOgh1vVLtovy7sf/Z8sH7mUttDF5pxj/dIDke0sjkXAiNRjcL+ild0efCZU99Q/+uvjGzVo+2XG3og/XH8yX8tCJ/AQ==);strokeColor=#000000;spacingTop=-3;spacingBottom=-3;spacingLeft=-3;spacingRight=-3;points=[];labelBackgroundColor=none;rounded=0;html=1;whiteSpace=wrap;" parent="1" vertex="1">
            <mxGeometry x="685" y="74" width="30" height="30" as="geometry" />
          </mxCell>
        </UserObject>
        <UserObject label="&lt;div style=&quot;font-size: 1px&quot;&gt;&lt;font style=&quot;font-size:11.64px;font-family:Helvetica;color:#000000;direction:ltr;letter-spacing:0px;line-height:120%;opacity:1&quot;&gt;404&lt;/font&gt;&lt;/div&gt;" tags="Background" id="55">
          <mxCell style="verticalAlign=middle;align=center;overflow=width;vsdxID=54;fillColor=none;gradientColor=none;shape=stencil(nZBRDoQgDERP03+WHsHFe5iISyOCQdT19kIaIxq//Jtp3zTpAFaTaUYNUkwx+F6v1EYD+AUpyRkdKCYFqACrzgf9C352LfuxyWRWg1/yhT/nRE5IsZWuZtCSK8CPeI0e/hF+jV7AJM4PO7KWCyr390bSiNtEtQM=);strokeColor=none;spacingTop=-3;spacingBottom=-3;spacingLeft=-3;spacingRight=-3;points=[];labelBackgroundColor=none;rounded=0;html=1;whiteSpace=wrap;" parent="1" vertex="1">
            <mxGeometry x="670" y="45" width="60" height="30" as="geometry" />
          </mxCell>
        </UserObject>
        <UserObject label="" tags="Background" id="56">
          <mxCell style="vsdxID=5510000;fillColor=none;gradientColor=none;strokeColor=none;spacingTop=-3;spacingBottom=-3;spacingLeft=-3;spacingRight=-3;points=[];labelBackgroundColor=none;rounded=0;html=1;whiteSpace=wrap;" parent="1" vertex="1">
            <mxGeometry as="geometry" />
          </mxCell>
        </UserObject>
        <mxCell id="57" value="&lt;div style=&quot;font-size: 1px&quot;&gt;&lt;font style=&quot;font-size:10.67px;font-family:Helvetica;color:#000000;direction:ltr;letter-spacing:0px;line-height:120%;opacity:1&quot;&gt;No&lt;/font&gt;&lt;/div&gt;" style="verticalAlign=middle;align=center;overflow=width;vsdxID=56;fillColor=none;gradientColor=none;strokeColor=none;spacingTop=-3;spacingBottom=-3;spacingLeft=-3;spacingRight=-3;points=[];labelBackgroundColor=#ffffff;rounded=0;html=1;whiteSpace=wrap;" parent="56" vertex="1">
          <mxGeometry as="geometry" />
        </mxCell>
        <UserObject label="" tags="Background" id="73">
          <mxCell style="vsdxID=55;edgeStyle=none;startArrow=none;endArrow=classic;startSize=5;endSize=5;strokeColor=#000000;spacingTop=0;spacingBottom=0;spacingLeft=0;spacingRight=0;verticalAlign=middle;html=1;labelBackgroundColor=#ffffff;rounded=0;exitX=0.5;exitY=0;exitDx=0;exitDy=0;exitPerimeter=0;entryX=0.5;entryY=1;entryDx=0;entryDy=0;entryPerimeter=0;" parent="56" source="22" target="54" edge="1">
            <mxGeometry relative="1" as="geometry">
              <mxPoint y="194" as="offset" />
              <Array as="points" />
            </mxGeometry>
          </mxCell>
        </UserObject>
        <UserObject label="" tags="Background" id="62">
          <mxCell style="vsdxID=20;edgeStyle=none;startArrow=none;endArrow=classic;startSize=5;endSize=5;strokeColor=#000000;spacingTop=0;spacingBottom=0;spacingLeft=0;spacingRight=0;verticalAlign=middle;html=1;labelBackgroundColor=#ffffff;rounded=0;exitX=0.5;exitY=1;exitDx=0;exitDy=0;exitPerimeter=0;entryX=0.5;entryY=0;entryDx=0;entryDy=0;entryPerimeter=0;" parent="1" source="23" target="11" edge="1">
            <mxGeometry relative="1" as="geometry">
              <mxPoint y="191" as="offset" />
              <Array as="points" />
            </mxGeometry>
          </mxCell>
        </UserObject>
        <UserObject label="" tags="Background" id="67">
          <mxCell style="vsdxID=35;edgeStyle=none;startArrow=none;endArrow=classic;startSize=5;endSize=5;strokeColor=#000000;spacingTop=0;spacingBottom=0;spacingLeft=0;spacingRight=0;verticalAlign=middle;html=1;labelBackgroundColor=#ffffff;rounded=0;exitX=0.5;exitY=1;exitDx=0;exitDy=0;exitPerimeter=0;entryX=0;entryY=0.5;entryDx=0;entryDy=0;entryPerimeter=0;" parent="1" source="11" target="30" edge="1">
            <mxGeometry relative="1" as="geometry">
              <mxPoint y="163" as="offset" />
              <Array as="points">
                <mxPoint x="120" y="490" />
              </Array>
            </mxGeometry>
          </mxCell>
        </UserObject>
        <UserObject label="" tags="Background" id="70">
          <mxCell style="vsdxID=46;edgeStyle=none;startArrow=none;endArrow=classic;startSize=5;endSize=5;strokeColor=#000000;spacingTop=0;spacingBottom=0;spacingLeft=0;spacingRight=0;verticalAlign=middle;html=1;labelBackgroundColor=#ffffff;rounded=0;exitX=0.5;exitY=0;exitDx=0;exitDy=0;exitPerimeter=0;entryX=0.5;entryY=1;entryDx=0;entryDy=0;entryPerimeter=0;" parent="1" source="12" target="44" edge="1">
            <mxGeometry relative="1" as="geometry">
              <mxPoint y="169" as="offset" />
              <Array as="points" />
            </mxGeometry>
          </mxCell>
        </UserObject>
      </root>
    </mxGraphModel>
  </diagram>
</mxfile>
